<svg xmlns="http://www.w3.org/2000/svg" xmlns:tchart="http://tchart-rust/1.0" width="140.108" height="117.2" viewBox="0 0 140.108 117.2"><metadata><tchart:source>@title バスラベル中央寄せ
@step 10
@slant 2

clk    ~_~_~_~_
addr   =A=B=C=D=E=F=G=H
en     __~~~~__
</tchart:source></metadata><style>.waveforms polyline { fill: none; stroke: black; }
.guides line { stroke: red; }
.highlights rect { fill: #ff8; }</style><g class="rulers" transform="translate(50.108,10)"><line x1="0" y1="0" x2="0" y2="97.2" stroke="#a0a0a0" stroke-width="0.5" stroke-dasharray="3 5"/><line x1="10" y1="0" x2="10" y2="97.2" stroke="#a0a0a0" stroke-width="0.5" stroke-dasharray="3 5"/><line x1="20" y1="0" x2="20" y2="97.2" stroke="#a0a0a0" stroke-width="0.5" stroke-dasharray="3 5"/><line x1="30" y1="0" x2="30" y2="97.2" stroke="#a0a0a0" stroke-width="0.5" stroke-dasharray="3 5"/><line x1="40" y1="0" x2="40" y2="97.2" stroke="#a0a0a0" stroke-width="0.5" stroke-dasharray="3 5"/><line x1="50" y1="0" x2="50" y2="97.2" stroke="#a0a0a0" stroke-width="0.5" stroke-dasharray="3 5"/><line x1="60" y1="0" x2="60" y2="97.2" stroke="#a0a0a0" stroke-width="0.5" stroke-dasharray="3 5"/><line x1="70" y1="0" x2="70" y2="97.2" stroke="#a0a0a0" stroke-width="0.5" stroke-dasharray="3 5"/><line x1="80" y1="0" x2="80" y2="97.2" stroke="#a0a0a0" stroke-width="0.5" stroke-dasharray="3 5"/></g><g class="signal-labels"><text x="42.108" y="45.8" font-family="sans-serif" font-size="14" fill="#000000" text-anchor="end"><tspan x="42.108" dy="0">clk</tspan></text><text x="42.108" y="72.6" font-family="sans-serif" font-size="14" fill="#000000" text-anchor="end"><tspan x="42.108" dy="0">addr</tspan></text><text x="42.108" y="99.4" font-family="sans-serif" font-size="14" fill="#000000" text-anchor="end"><tspan x="42.108" dy="0">en</tspan></text></g><g class="waveforms"><polyline points="50.108,31.8 60.108,31.8 62.108,48.6 70.108,48.6 72.108,31.8 80.108,31.8 82.108,48.6 90.108,48.6 92.108,31.8 100.108,31.8 102.108,48.6 110.108,48.6 112.108,31.8 120.108,31.8 122.108,48.6 130.108,48.6"/><text x="90.108" y="67" font-family="sans-serif" font-size="14" fill="#000000" text-anchor="middle" dominant-baseline="middle">A B C D E F G H</text><polyline points="50.108,58.6 130.108,58.6"/><polyline points="50.108,75.4 130.108,75.4"/><polyline points="50.108,102.2 70.108,102.2 72.108,85.4 110.108,85.4 112.108,102.2 130.108,102.2"/></g><g class="titles"><text x="70.054" y="24" font-family="sans-serif" font-size="14" fill="#000000" text-anchor="middle"><tspan x="70.054" dy="0">バスラベル中央寄せ</tspan></text></g></svg>