<svg xmlns="http://www.w3.org/2000/svg" xmlns:tchart="http://tchart-rust/1.0" width="206.914" height="204.4" viewBox="0 0 206.914 204.4"><metadata><tchart:source>// Multi-line signal names and per-signal backgrounds
@fontsize 14
@step 8
@slant 2

@bg #f8f8ff
Clock _~_~_~_~_~_~
@bg #f0f0f0
&quot;Data
Bus&quot; =====X====X====
@bg #f8f8ff
Enable ____~~~~____
@bg #f0f0f0
&quot;Control
Signal
Out&quot; _______~~~~~____
@bg #f8f8ff
HiZ ----~~~~----
</tchart:source></metadata><style>.waveforms polyline { fill: none; stroke: black; }
.guides line { stroke: red; }
.highlights rect { fill: #ff8; }</style><g class="row-backgrounds"><rect x="10" y="10" width="186.914" height="26.8" fill="#f8f8ff"/><rect x="10" y="36.8" width="186.914" height="43.6" fill="#f0f0f0"/><rect x="10" y="80.4" width="186.914" height="26.8" fill="#f8f8ff"/><rect x="10" y="107.2" width="186.914" height="60.4" fill="#f0f0f0"/><rect x="10" y="167.6" width="186.914" height="26.8" fill="#f8f8ff"/></g><g class="rulers" transform="translate(68.914,10)"><line x1="0" y1="0" x2="0" y2="184.4" stroke="#a0a0a0" stroke-width="0.5" stroke-dasharray="3 5"/><line x1="8" y1="0" x2="8" y2="184.4" stroke="#a0a0a0" stroke-width="0.5" stroke-dasharray="3 5"/><line x1="16" y1="0" x2="16" y2="184.4" stroke="#a0a0a0" stroke-width="0.5" stroke-dasharray="3 5"/><line x1="24" y1="0" x2="24" y2="184.4" stroke="#a0a0a0" stroke-width="0.5" stroke-dasharray="3 5"/><line x1="32" y1="0" x2="32" y2="184.4" stroke="#a0a0a0" stroke-width="0.5" stroke-dasharray="3 5"/><line x1="40" y1="0" x2="40" y2="184.4" stroke="#a0a0a0" stroke-width="0.5" stroke-dasharray="3 5"/><line x1="48" y1="0" x2="48" y2="184.4" stroke="#a0a0a0" stroke-width="0.5" stroke-dasharray="3 5"/><line x1="56" y1="0" x2="56" y2="184.4" stroke="#a0a0a0" stroke-width="0.5" stroke-dasharray="3 5"/><line x1="64" y1="0" x2="64" y2="184.4" stroke="#a0a0a0" stroke-width="0.5" stroke-dasharray="3 5"/><line x1="72" y1="0" x2="72" y2="184.4" stroke="#a0a0a0" stroke-width="0.5" stroke-dasharray="3 5"/><line x1="80" y1="0" x2="80" y2="184.4" stroke="#a0a0a0" stroke-width="0.5" stroke-dasharray="3 5"/><line x1="88" y1="0" x2="88" y2="184.4" stroke="#a0a0a0" stroke-width="0.5" stroke-dasharray="3 5"/><line x1="96" y1="0" x2="96" y2="184.4" stroke="#a0a0a0" stroke-width="0.5" stroke-dasharray="3 5"/><line x1="104" y1="0" x2="104" y2="184.4" stroke="#a0a0a0" stroke-width="0.5" stroke-dasharray="3 5"/><line x1="112" y1="0" x2="112" y2="184.4" stroke="#a0a0a0" stroke-width="0.5" stroke-dasharray="3 5"/><line x1="120" y1="0" x2="120" y2="184.4" stroke="#a0a0a0" stroke-width="0.5" stroke-dasharray="3 5"/><line x1="128" y1="0" x2="128" y2="184.4" stroke="#a0a0a0" stroke-width="0.5" stroke-dasharray="3 5"/></g><g class="signal-labels"><text x="60.914" y="29" font-family="sans-serif" font-size="14" fill="#000000" text-anchor="end"><tspan x="60.914" dy="0">Clock</tspan></text><text x="60.914" y="55.8" font-family="sans-serif" font-size="14" fill="#000000" text-anchor="end"><tspan x="60.914" dy="0">Data</tspan><tspan x="60.914" dy="14">Bus</tspan></text><text x="60.914" y="99.4" font-family="sans-serif" font-size="14" fill="#000000" text-anchor="end"><tspan x="60.914" dy="0">Enable</tspan></text><text x="60.914" y="126.2" font-family="sans-serif" font-size="14" fill="#000000" text-anchor="end"><tspan x="60.914" dy="0">Control</tspan><tspan x="60.914" dy="14">Signal</tspan><tspan x="60.914" dy="14">Out</tspan></text><text x="60.914" y="186.6" font-family="sans-serif" font-size="14" fill="#000000" text-anchor="end"><tspan x="60.914" dy="0">HiZ</tspan></text></g><g class="waveforms"><polyline points="68.914,31.8 76.914,31.8 78.914,15 84.914,15 86.914,31.8 92.914,31.8 94.914,15 100.914,15 102.914,31.8 108.914,31.8 110.914,15 116.914,15 118.914,31.8 124.914,31.8 126.914,15 132.914,15 134.914,31.8 140.914,31.8 142.914,15 148.914,15 150.914,31.8 156.914,31.8 158.914,15 164.914,15"/><polyline points="68.914,50.2 108.914,50.2 110.914,67 148.914,67 150.914,50.2 188.914,50.2"/><polyline points="68.914,67 108.914,67 110.914,50.2 148.914,50.2 150.914,67 188.914,67"/><polyline points="68.914,102.2 100.914,102.2 102.914,85.4 132.914,85.4 134.914,102.2 164.914,102.2"/><polyline points="68.914,145.8 124.914,145.8 126.914,129 164.914,129 166.914,145.8 196.914,145.8"/><polyline points="102.914,172.6 132.914,172.6"/><polyline points="68.914,181 100.914,181 102.914,172.6 132.914,172.6 134.914,181 164.914,181" stroke-dasharray="4 2"/></g></svg>