<svg xmlns="http://www.w3.org/2000/svg" xmlns:tchart="http://tchart-rust/1.0" width="196.61" height="197.6" viewBox="0 0 196.61 197.6"><metadata><tchart:source>@step 10
@slant 2
@bgcolor0 #f8f8ff
@bgcolor1 #f0f0f0

@signal(overline)
nReset    ~~~~__~~~~

@signal(overline)
hoge    ~~~~__~~~~

@signal(overline)
nWrite    ~~__~~__~~

Enable    ____~~~~____

@signal(overline)
&quot;nChip
Enable&quot;   ~~~~____~~~~

Out       __~~~~____~~
</tchart:source></metadata><style>.waveforms polyline { fill: none; stroke: black; }
.guides line { stroke: red; }
.highlights rect { fill: #ff8; }</style><g class="row-backgrounds"><rect x="10" y="10" width="176.61" height="26.8" fill="#f8f8ff"/><rect x="10" y="36.8" width="176.61" height="26.8" fill="#f0f0f0"/><rect x="10" y="63.6" width="176.61" height="26.8" fill="#f8f8ff"/><rect x="10" y="90.4" width="176.61" height="26.8" fill="#f0f0f0"/><rect x="10" y="117.2" width="176.61" height="43.6" fill="#f8f8ff"/><rect x="10" y="160.8" width="176.61" height="26.8" fill="#f0f0f0"/></g><g class="rulers" transform="translate(66.61,10)"><line x1="0" y1="0" x2="0" y2="177.6" stroke="#a0a0a0" stroke-width="0.5" stroke-dasharray="3 5"/><line x1="10" y1="0" x2="10" y2="177.6" stroke="#a0a0a0" stroke-width="0.5" stroke-dasharray="3 5"/><line x1="20" y1="0" x2="20" y2="177.6" stroke="#a0a0a0" stroke-width="0.5" stroke-dasharray="3 5"/><line x1="30" y1="0" x2="30" y2="177.6" stroke="#a0a0a0" stroke-width="0.5" stroke-dasharray="3 5"/><line x1="40" y1="0" x2="40" y2="177.6" stroke="#a0a0a0" stroke-width="0.5" stroke-dasharray="3 5"/><line x1="50" y1="0" x2="50" y2="177.6" stroke="#a0a0a0" stroke-width="0.5" stroke-dasharray="3 5"/><line x1="60" y1="0" x2="60" y2="177.6" stroke="#a0a0a0" stroke-width="0.5" stroke-dasharray="3 5"/><line x1="70" y1="0" x2="70" y2="177.6" stroke="#a0a0a0" stroke-width="0.5" stroke-dasharray="3 5"/><line x1="80" y1="0" x2="80" y2="177.6" stroke="#a0a0a0" stroke-width="0.5" stroke-dasharray="3 5"/><line x1="90" y1="0" x2="90" y2="177.6" stroke="#a0a0a0" stroke-width="0.5" stroke-dasharray="3 5"/><line x1="100" y1="0" x2="100" y2="177.6" stroke="#a0a0a0" stroke-width="0.5" stroke-dasharray="3 5"/><line x1="110" y1="0" x2="110" y2="177.6" stroke="#a0a0a0" stroke-width="0.5" stroke-dasharray="3 5"/><line x1="120" y1="0" x2="120" y2="177.6" stroke="#a0a0a0" stroke-width="0.5" stroke-dasharray="3 5"/></g><g class="signal-labels"><line x1="10" y1="17.2" x2="58.61" y2="17.2" stroke="#000000" stroke-width="1"/><text x="58.61" y="29" font-family="sans-serif" font-size="14" fill="#000000" text-anchor="end"><tspan x="58.61" dy="0">nReset</tspan></text><line x1="23.672" y1="44" x2="58.61" y2="44" stroke="#000000" stroke-width="1"/><text x="58.61" y="55.8" font-family="sans-serif" font-size="14" fill="#000000" text-anchor="end"><tspan x="58.61" dy="0">hoge</tspan></text><line x1="12.146" y1="70.8" x2="58.61" y2="70.8" stroke="#000000" stroke-width="1"/><text x="58.61" y="82.6" font-family="sans-serif" font-size="14" fill="#000000" text-anchor="end"><tspan x="58.61" dy="0">nWrite</tspan></text><text x="58.61" y="109.4" font-family="sans-serif" font-size="14" fill="#000000" text-anchor="end"><tspan x="58.61" dy="0">Enable</tspan></text><line x1="10.923" y1="124.4" x2="58.61" y2="124.4" stroke="#000000" stroke-width="1"/><text x="58.61" y="136.2" font-family="sans-serif" font-size="14" fill="#000000" text-anchor="end"><tspan x="58.61" dy="0">nChip</tspan><tspan x="58.61" dy="14">Enable</tspan></text><text x="58.61" y="179.8" font-family="sans-serif" font-size="14" fill="#000000" text-anchor="end"><tspan x="58.61" dy="0">Out</tspan></text></g><g class="waveforms"><polyline points="66.61,15 106.61,15 108.61,31.8 126.61,31.8 128.61,15 166.61,15"/><polyline points="66.61,41.8 106.61,41.8 108.61,58.6 126.61,58.6 128.61,41.8 166.61,41.8"/><polyline points="66.61,68.6 86.61,68.6 88.61,85.4 106.61,85.4 108.61,68.6 126.61,68.6 128.61,85.4 146.61,85.4 148.61,68.6 166.61,68.6"/><polyline points="66.61,112.2 106.61,112.2 108.61,95.4 146.61,95.4 148.61,112.2 186.61,112.2"/><polyline points="66.61,130.6 106.61,130.6 108.61,147.4 146.61,147.4 148.61,130.6 186.61,130.6"/><polyline points="66.61,182.6 86.61,182.6 88.61,165.8 126.61,165.8 128.61,182.6 166.61,182.6 168.61,165.8 186.61,165.8"/></g></svg>