<svg xmlns="http://www.w3.org/2000/svg" xmlns:tchart="http://tchart-rust/1.0" width="257.802" height="127.2" viewBox="0 0 257.802 127.2"><metadata><tchart:source>// 信号長がバラバラでも row-background はチャート全幅で揃うことを確認するサンプル
@step 10
@slant 2
@bgcolor0 #fde
@bgcolor1 #def

Long      _~_~_~_~_~_~_~_~
Short     _~_~
Mid       _~_~_~_~_~
VeryShort _
</tchart:source></metadata><style>.waveforms polyline { fill: none; stroke: black; }
.guides line { stroke: red; }
.highlights rect { fill: #ff8; }</style><g class="row-backgrounds"><rect x="10" y="10" width="237.802" height="26.8" fill="#ffddee"/><rect x="10" y="36.8" width="237.802" height="26.8" fill="#ddeeff"/><rect x="10" y="63.6" width="237.802" height="26.8" fill="#ffddee"/><rect x="10" y="90.4" width="237.802" height="26.8" fill="#ddeeff"/></g><g class="rulers" transform="translate(87.802,10)"><line x1="0" y1="0" x2="0" y2="107.2" stroke="#a0a0a0" stroke-width="0.5" stroke-dasharray="3 5"/><line x1="10" y1="0" x2="10" y2="107.2" stroke="#a0a0a0" stroke-width="0.5" stroke-dasharray="3 5"/><line x1="20" y1="0" x2="20" y2="107.2" stroke="#a0a0a0" stroke-width="0.5" stroke-dasharray="3 5"/><line x1="30" y1="0" x2="30" y2="107.2" stroke="#a0a0a0" stroke-width="0.5" stroke-dasharray="3 5"/><line x1="40" y1="0" x2="40" y2="107.2" stroke="#a0a0a0" stroke-width="0.5" stroke-dasharray="3 5"/><line x1="50" y1="0" x2="50" y2="107.2" stroke="#a0a0a0" stroke-width="0.5" stroke-dasharray="3 5"/><line x1="60" y1="0" x2="60" y2="107.2" stroke="#a0a0a0" stroke-width="0.5" stroke-dasharray="3 5"/><line x1="70" y1="0" x2="70" y2="107.2" stroke="#a0a0a0" stroke-width="0.5" stroke-dasharray="3 5"/><line x1="80" y1="0" x2="80" y2="107.2" stroke="#a0a0a0" stroke-width="0.5" stroke-dasharray="3 5"/><line x1="90" y1="0" x2="90" y2="107.2" stroke="#a0a0a0" stroke-width="0.5" stroke-dasharray="3 5"/><line x1="100" y1="0" x2="100" y2="107.2" stroke="#a0a0a0" stroke-width="0.5" stroke-dasharray="3 5"/><line x1="110" y1="0" x2="110" y2="107.2" stroke="#a0a0a0" stroke-width="0.5" stroke-dasharray="3 5"/><line x1="120" y1="0" x2="120" y2="107.2" stroke="#a0a0a0" stroke-width="0.5" stroke-dasharray="3 5"/><line x1="130" y1="0" x2="130" y2="107.2" stroke="#a0a0a0" stroke-width="0.5" stroke-dasharray="3 5"/><line x1="140" y1="0" x2="140" y2="107.2" stroke="#a0a0a0" stroke-width="0.5" stroke-dasharray="3 5"/><line x1="150" y1="0" x2="150" y2="107.2" stroke="#a0a0a0" stroke-width="0.5" stroke-dasharray="3 5"/><line x1="160" y1="0" x2="160" y2="107.2" stroke="#a0a0a0" stroke-width="0.5" stroke-dasharray="3 5"/></g><g class="signal-labels"><text x="79.802" y="29" font-family="sans-serif" font-size="14" fill="#000000" text-anchor="end"><tspan x="79.802" dy="0">Long</tspan></text><text x="79.802" y="55.8" font-family="sans-serif" font-size="14" fill="#000000" text-anchor="end"><tspan x="79.802" dy="0">Short</tspan></text><text x="79.802" y="82.6" font-family="sans-serif" font-size="14" fill="#000000" text-anchor="end"><tspan x="79.802" dy="0">Mid</tspan></text><text x="79.802" y="109.4" font-family="sans-serif" font-size="14" fill="#000000" text-anchor="end"><tspan x="79.802" dy="0">VeryShort</tspan></text></g><g class="waveforms"><polyline points="87.802,31.8 97.802,31.8 99.802,15 107.802,15 109.802,31.8 117.802,31.8 119.802,15 127.802,15 129.802,31.8 137.802,31.8 139.802,15 147.802,15 149.802,31.8 157.802,31.8 159.802,15 167.802,15 169.802,31.8 177.802,31.8 179.802,15 187.802,15 189.802,31.8 197.802,31.8 199.802,15 207.802,15 209.802,31.8 217.802,31.8 219.802,15 227.802,15 229.802,31.8 237.802,31.8 239.802,15 247.802,15"/><polyline points="87.802,58.6 97.802,58.6 99.802,41.8 107.802,41.8 109.802,58.6 117.802,58.6 119.802,41.8 127.802,41.8"/><polyline points="87.802,85.4 97.802,85.4 99.802,68.6 107.802,68.6 109.802,85.4 117.802,85.4 119.802,68.6 127.802,68.6 129.802,85.4 137.802,85.4 139.802,68.6 147.802,68.6 149.802,85.4 157.802,85.4 159.802,68.6 167.802,68.6 169.802,85.4 177.802,85.4 179.802,68.6 187.802,68.6"/><polyline points="87.802,112.2 97.802,112.2"/></g></svg>