<svg xmlns="http://www.w3.org/2000/svg" xmlns:tchart="http://tchart-rust/1.0" width="204.631" height="144" viewBox="0 0 204.631 144"><metadata><tchart:source>// クロック同期回路のサンプル
@step 8
@slant 2
@bgcolor0 #f8f8ff
@bgcolor1 #f0f0f0

Clock   _~_~_~_~_~_~
&quot;Data
-Data&quot;    =====X====X====
Enable  ____~~~~____
Output  _______~~~~~____
</tchart:source></metadata><style>.waveforms polyline { fill: none; stroke: black; }
.guides line { stroke: red; }
.highlights rect { fill: #ff8; }</style><g class="row-backgrounds"><rect x="10" y="10" width="184.631" height="26.8" fill="#f8f8ff"/><rect x="10" y="36.8" width="184.631" height="43.6" fill="#f0f0f0"/><rect x="10" y="80.4" width="184.631" height="26.8" fill="#f8f8ff"/><rect x="10" y="107.2" width="184.631" height="26.8" fill="#f0f0f0"/></g><g class="rulers" transform="translate(66.631,10)"><line x1="0" y1="0" x2="0" y2="124" stroke="#a0a0a0" stroke-width="0.5" stroke-dasharray="3 5"/><line x1="8" y1="0" x2="8" y2="124" stroke="#a0a0a0" stroke-width="0.5" stroke-dasharray="3 5"/><line x1="16" y1="0" x2="16" y2="124" stroke="#a0a0a0" stroke-width="0.5" stroke-dasharray="3 5"/><line x1="24" y1="0" x2="24" y2="124" stroke="#a0a0a0" stroke-width="0.5" stroke-dasharray="3 5"/><line x1="32" y1="0" x2="32" y2="124" stroke="#a0a0a0" stroke-width="0.5" stroke-dasharray="3 5"/><line x1="40" y1="0" x2="40" y2="124" stroke="#a0a0a0" stroke-width="0.5" stroke-dasharray="3 5"/><line x1="48" y1="0" x2="48" y2="124" stroke="#a0a0a0" stroke-width="0.5" stroke-dasharray="3 5"/><line x1="56" y1="0" x2="56" y2="124" stroke="#a0a0a0" stroke-width="0.5" stroke-dasharray="3 5"/><line x1="64" y1="0" x2="64" y2="124" stroke="#a0a0a0" stroke-width="0.5" stroke-dasharray="3 5"/><line x1="72" y1="0" x2="72" y2="124" stroke="#a0a0a0" stroke-width="0.5" stroke-dasharray="3 5"/><line x1="80" y1="0" x2="80" y2="124" stroke="#a0a0a0" stroke-width="0.5" stroke-dasharray="3 5"/><line x1="88" y1="0" x2="88" y2="124" stroke="#a0a0a0" stroke-width="0.5" stroke-dasharray="3 5"/><line x1="96" y1="0" x2="96" y2="124" stroke="#a0a0a0" stroke-width="0.5" stroke-dasharray="3 5"/><line x1="104" y1="0" x2="104" y2="124" stroke="#a0a0a0" stroke-width="0.5" stroke-dasharray="3 5"/><line x1="112" y1="0" x2="112" y2="124" stroke="#a0a0a0" stroke-width="0.5" stroke-dasharray="3 5"/><line x1="120" y1="0" x2="120" y2="124" stroke="#a0a0a0" stroke-width="0.5" stroke-dasharray="3 5"/><line x1="128" y1="0" x2="128" y2="124" stroke="#a0a0a0" stroke-width="0.5" stroke-dasharray="3 5"/></g><g class="signal-labels"><text x="58.631" y="29" font-family="sans-serif" font-size="14" fill="#000000" text-anchor="end"><tspan x="58.631" dy="0">Clock</tspan></text><text x="58.631" y="55.8" font-family="sans-serif" font-size="14" fill="#000000" text-anchor="end"><tspan x="58.631" dy="0">Data</tspan><tspan x="58.631" dy="14">-Data</tspan></text><text x="58.631" y="99.4" font-family="sans-serif" font-size="14" fill="#000000" text-anchor="end"><tspan x="58.631" dy="0">Enable</tspan></text><text x="58.631" y="126.2" font-family="sans-serif" font-size="14" fill="#000000" text-anchor="end"><tspan x="58.631" dy="0">Output</tspan></text></g><g class="waveforms"><polyline points="66.631,31.8 74.631,31.8 76.631,15 82.631,15 84.631,31.8 90.631,31.8 92.631,15 98.631,15 100.631,31.8 106.631,31.8 108.631,15 114.631,15 116.631,31.8 122.631,31.8 124.631,15 130.631,15 132.631,31.8 138.631,31.8 140.631,15 146.631,15 148.631,31.8 154.631,31.8 156.631,15 162.631,15"/><polyline points="66.631,50.2 106.631,50.2 108.631,67 146.631,67 148.631,50.2 186.631,50.2"/><polyline points="66.631,67 106.631,67 108.631,50.2 146.631,50.2 148.631,67 186.631,67"/><polyline points="66.631,102.2 98.631,102.2 100.631,85.4 130.631,85.4 132.631,102.2 162.631,102.2"/><polyline points="66.631,129 122.631,129 124.631,112.2 162.631,112.2 164.631,129 194.631,129"/></g></svg>