<svg xmlns="http://www.w3.org/2000/svg" xmlns:tchart="http://tchart-rust/1.0" width="168.148" height="100.4" viewBox="0 0 168.148 100.4"><metadata><tchart:source>// 縦線 (&apos;|&apos;) パターン確認サンプル
// `|` を書いた位置にチャート全体を貫通する垂直線が描画されることを確認する
// 各行に異なる位置で `|` を書き、3本の独立した縦線が全行を横断することを確認する
@step 10
@slant 2

VL_Hi      ~~~~|~~~~~
VL_Lo      ________|~
VL_Bus     ======|===
</tchart:source></metadata><style>.waveforms polyline { fill: none; stroke: black; }
.guides line { stroke: red; }
.highlights rect { fill: #ff8; }</style><g class="rulers" transform="translate(68.148,10)"><line x1="0" y1="0" x2="0" y2="80.4" stroke="#a0a0a0" stroke-width="0.5" stroke-dasharray="3 5"/><line x1="10" y1="0" x2="10" y2="80.4" stroke="#a0a0a0" stroke-width="0.5" stroke-dasharray="3 5"/><line x1="20" y1="0" x2="20" y2="80.4" stroke="#a0a0a0" stroke-width="0.5" stroke-dasharray="3 5"/><line x1="30" y1="0" x2="30" y2="80.4" stroke="#a0a0a0" stroke-width="0.5" stroke-dasharray="3 5"/><line x1="40" y1="0" x2="40" y2="80.4" stroke="#a0a0a0" stroke-width="0.5" stroke-dasharray="3 5"/><line x1="50" y1="0" x2="50" y2="80.4" stroke="#a0a0a0" stroke-width="0.5" stroke-dasharray="3 5"/><line x1="60" y1="0" x2="60" y2="80.4" stroke="#a0a0a0" stroke-width="0.5" stroke-dasharray="3 5"/><line x1="70" y1="0" x2="70" y2="80.4" stroke="#a0a0a0" stroke-width="0.5" stroke-dasharray="3 5"/><line x1="80" y1="0" x2="80" y2="80.4" stroke="#a0a0a0" stroke-width="0.5" stroke-dasharray="3 5"/><line x1="90" y1="0" x2="90" y2="80.4" stroke="#a0a0a0" stroke-width="0.5" stroke-dasharray="3 5"/></g><g class="signal-labels"><text x="60.148" y="29" font-family="sans-serif" font-size="14" fill="#000000" text-anchor="end"><tspan x="60.148" dy="0">VL_Hi</tspan></text><text x="60.148" y="55.8" font-family="sans-serif" font-size="14" fill="#000000" text-anchor="end"><tspan x="60.148" dy="0">VL_Lo</tspan></text><text x="60.148" y="82.6" font-family="sans-serif" font-size="14" fill="#000000" text-anchor="end"><tspan x="60.148" dy="0">VL_Bus</tspan></text></g><g class="waveforms"><polyline points="68.148,15 108.148,15 158.148,15"/><polyline points="68.148,58.6 148.148,58.6 150.148,41.8 158.148,41.8"/><polyline points="68.148,68.6 128.148,68.6 158.148,68.6"/><polyline points="68.148,85.4 128.148,85.4 158.148,85.4"/></g><g class="guides"><line x1="108.148" y1="5" x2="108.148" y2="95.4" stroke="#ff0000" stroke-width="0.6"/><line x1="148.148" y1="5" x2="148.148" y2="95.4" stroke="#ff0000" stroke-width="0.6"/><line x1="128.148" y1="5" x2="128.148" y2="95.4" stroke="#ff0000" stroke-width="0.6"/></g></svg>